<?xml version="1.0" encoding="UTF-8" standalone="no"?>
<!-- Created with Inkscape (http://www.inkscape.org/) -->

<svg
   version="1.1"
   id="svg1"
   width="661.80981"
   height="427.83035"
   viewBox="0 0 661.80984 427.83037"
   xmlns="http://www.w3.org/2000/svg"
   xmlns:svg="http://www.w3.org/2000/svg">
  <defs
     id="defs1" />
  <g
     id="g1"
     transform="translate(-2293.5246,-847.96579)">
    <path
       style="fill:#001d2e;fill-opacity:1"
       d="m 2600.3986,1275.0472 c -54.6601,-7.0924 -103.1258,-34.5338 -133.6031,-75.6462 -6.2796,-8.4708 -7.0347,-13.154 -2.2316,-13.8393 2.0162,-0.2876 4.1139,1.2487 7.2821,5.3333 25.6425,33.0597 55.0384,53.8924 93.3708,66.1714 23.5514,7.5441 32.7821,8.8897 60.5151,8.8209 22.5769,-0.056 26.9651,-0.446 40.3298,-3.585 72.8732,-17.1156 127.2654,-72.1184 144.5411,-146.1638 3.9557,-16.9548 4.8731,-53.4114 1.832,-72.805 -3.2056,-20.4429 -6.7509,-31.343 -11.4037,-35.0613 -2.1287,-1.7011 -6.7316,-9.00103 -10.5091,-16.66664 -11.6099,-23.55982 -31.3531,-47.16262 -52.584,-62.86366 -15.8198,-11.69929 -15.6336,-10.98121 -7.6203,-29.38619 3.7112,-8.52382 6.7476,-16.06493 6.7476,-16.75802 0,-0.97978 -8.5187,-6.01808 -17.4781,-10.33719 -0.4462,-0.21513 -3.4462,5.70583 -6.6666,13.15768 -7.623,17.6391 -8.8553,18.48227 -21.5649,14.75493 -13.2605,-3.8889 -31.6987,-8.18669 -35.1704,-8.19795 -2.4106,-0.008 -5.1534,4.48015 -16.8315,27.5412 l -13.9516,27.55054 -11.676,-19.88388 c -6.4219,-10.93613 -12.3821,-20.64684 -13.245,-21.57936 -1.2629,-1.36489 -4.0237,-1.04895 -14.159,1.62032 -16.2786,4.28717 -24.3661,7.44402 -40.1193,15.66 -42.6759,22.25732 -73.8046,60.54273 -85.884,105.62922 -5.3444,19.9483 -6.7984,17.6631 19.6682,30.9137 l 22.9218,11.4759 -3.2552,2.4914 c -1.7903,1.3703 -11.2263,7.1595 -20.9689,12.8649 -9.7426,5.7053 -18.6095,10.9776 -19.7042,11.7162 -1.7599,1.1874 -1.7358,2.5765 0.2082,12 11.3874,55.2 49.8744,100.9136 102.5431,121.7973 12.022,4.7668 38.8313,11.9708 39.826,10.7017 0.2192,-0.2797 5.074,-9.5085 10.7885,-20.5085 5.7145,-11 11.1296,-21.0631 12.0335,-22.3623 1.4346,-2.0618 3.2062,0.6093 13.9286,21.0009 11.9163,22.6619 12.3922,23.3377 15.8542,22.5112 27.6692,-6.6053 55.8552,-19.8021 74.2359,-34.7576 17.569,-14.2951 36.4035,-37.3716 45.9492,-56.2981 8.3091,-16.4748 18.177,-51.8921 15.2472,-54.7247 -0.658,-0.6362 -10.4964,-6.0406 -21.8631,-12.0096 -11.3666,-5.9691 -21.1718,-11.3521 -21.7891,-11.9622 -0.6174,-0.6101 7.9326,-6.0878 19,-12.1728 16.4849,-9.0635 20.1225,-11.5934 20.1225,-13.995 0,-6.4169 -7.0812,-27.3642 -14.0323,-41.5101 -8.9097,-18.13154 -19.5505,-32.54974 -34.3485,-46.54166 -13.7633,-13.01364 -26.2454,-21.45765 -44.327,-29.98672 -13.9364,-6.57377 -14.6505,-7.1709 -13.1748,-11.01651 0.6894,-1.79648 1.5749,-1.73158 7.331,0.53722 53.5726,21.11638 93.4424,67.62236 104.7188,122.14887 1.1327,5.4772 1.7491,10.7672 1.3699,11.7556 -0.3793,0.9883 -6.8803,5.2659 -14.4467,9.5057 -7.5664,4.2398 -14.8556,8.4373 -16.1982,9.3276 -2.1474,1.4241 -0.3472,2.6966 14.9607,10.5755 9.571,4.9261 18.3682,9.6632 19.5493,10.5269 1.9727,1.4425 1.9637,2.6507 -0.1112,14.8423 -4.3545,25.5872 -16.6678,54.7699 -31.2833,74.1421 -19.5136,25.8644 -48.0955,47.4696 -78.9049,59.6446 -12.5212,4.948 -29.8931,9.4854 -36.3161,9.4854 h -4.7689 l -9.3512,-18.6666 c -5.1431,-10.2667 -9.6031,-18.6667 -9.911,-18.6667 -0.3079,0 -4.8918,8.1 -10.1864,18 l -9.6265,18 h -6.3254 c -14.1438,0 -46.7657,-11.0727 -66.3921,-22.5351 -41.8884,-24.4642 -73.4746,-70.1681 -82.1203,-118.8248 -2.4033,-13.5254 -4.0865,-11.3576 19.7284,-25.4086 9.227,-5.444 16.7734,-10.1981 16.7696,-10.5648 0,-0.3667 -8.5409,-4.9292 -18.9715,-10.1389 -14.9137,-7.4489 -19.0581,-10.1014 -19.4018,-12.4174 -0.6124,-4.126 3.3215,-22.8703 7.2986,-34.777 18.2687,-54.69219 67.625,-99.10574 126.8234,-114.12264 20.789,-5.27357 19.7568,-5.6731 29.7519,11.51513 10.1312,17.42246 11.4899,19.4834 12.2655,18.6054 0.3228,-0.36552 5.5682,-10.47131 11.6563,-22.45732 7.3107,-14.39301 12.0635,-22.24573 13.9973,-23.12683 3.3486,-1.52573 18.1502,1.11655 35.7288,6.37807 5.8952,1.76449 11.4506,3.20817 12.3453,3.20817 0.8948,0 4.8391,-7.19633 8.7651,-15.99186 3.926,-8.79552 7.7382,-15.99543 8.4715,-15.9998 2.3658,-0.0141 30,16.05997 30,17.45018 0,0.73925 -3.2473,8.52694 -7.2162,17.30598 l -7.2162,15.96187 8.2162,5.51389 c 20.2628,13.59832 49.0348,47.62856 59.0034,69.78649 1.9729,4.38529 5.8852,10.22854 8.694,12.98497 5.6865,5.5806 9.8173,17.0617 14.0276,38.9883 3.156,16.4354 3.1177,49.9739 -0.077,67.8642 -7.4356,41.6345 -25.4945,77.5858 -53.2128,105.9356 -31.9665,32.6948 -69.5586,52.6572 -112.1788,59.5699 -11.0242,1.7881 -45.376,2.4286 -56.0398,1.045 z m -303.2708,-4.2979 c -1.555,-2.9055 -3.3586,-1.8809 91.7831,-52.1425 50.5114,-26.6842 53.9569,-28.2933 55.6439,-25.9862 1.5442,2.1117 1.4718,2.6829 -0.5123,4.0411 -4.5245,3.0975 -142.9168,76.6374 -144.2213,76.6374 -0.7308,0 -1.9428,-1.1474 -2.6934,-2.5498 z m 65.6134,-10.7305 c -1.8789,-3.0086 -7.1933,0.2595 52.9907,-32.5874 34.1686,-18.6483 38.1681,-20.5151 39.6667,-18.5143 0.9167,1.2237 1.6661,2.5603 1.6654,2.9702 -8e-4,0.4098 -4.9508,3.4119 -11,6.6713 -6.0493,3.2594 -26.5837,14.5094 -45.632,25 -19.0483,10.4906 -34.954,19.0738 -35.3459,19.0738 -0.392,0 -1.4472,-1.1761 -2.3449,-2.6136 z m 71.5963,-16.1672 c -0.8186,-1.5295 -1.2897,-2.967 -1.0469,-3.1945 1.3639,-1.278 32.1762,-18.0247 33.1638,-18.0247 0.651,0 1.7975,1.147 2.5478,2.5488 1.2216,2.2826 -0.3899,3.5358 -15.4311,12 -9.2373,5.1982 -17.0089,9.4512 -17.2702,9.4512 -0.2613,0 -1.1449,-1.2514 -1.9634,-2.7808 z m -125.1701,-3.6951 c -1.5195,-2.8391 -5.8382,-0.3476 73.3668,-42.3258 26.8413,-14.2257 49.4271,-25.8649 50.1907,-25.8649 1.8178,0 3.3945,4.1662 2.0507,5.4188 -0.574,0.5351 -21.1437,11.6084 -45.7103,24.6073 -24.5667,12.9989 -51.6401,27.4608 -60.1631,32.1375 -8.523,4.6767 -16.1519,8.503 -16.9531,8.503 -0.8011,0 -2.0529,-1.1141 -2.7817,-2.4759 z m 27.8331,-36.9354 c -1.394,-1.6798 -1.3612,-2.3811 0.1793,-3.8337 1.9619,-1.85 52.5962,-29.087 74.4068,-40.0247 9.796,-4.9125 12.7662,-5.893 13.6463,-4.5047 0.6187,0.9759 1.1272,2.3744 1.13,3.1078 0,0.7333 -9.4381,6.2783 -20.9796,12.3222 -11.5416,6.044 -31.2654,16.3889 -43.8307,22.9889 -20.0738,10.5439 -23.053,11.7505 -24.5521,9.9442 z m -42.5391,-5.8046 c -1.1749,-2.1954 -0.5111,-3.0493 4.7812,-6.1508 4.9553,-2.904 6.3686,-3.2495 7.297,-1.7841 2.0332,3.2091 1.3011,4.5987 -3.9892,7.572 -6.2965,3.5388 -6.3871,3.5429 -8.089,0.3629 z m 0.032,-18.6068 c -1.6491,-3.0815 -9.0289,1.2266 67.3753,-39.332 25.742,-13.6649 47.422,-24.8453 48.1779,-24.8453 0.7558,0 1.6855,1.1902 2.0659,2.6448 0.582,2.2257 -1.7706,3.9915 -14.8445,11.1421 -21.1777,11.5829 -96.3366,51.2079 -99.1005,52.2475 -1.4568,0.5479 -2.7318,-0.096 -3.6741,-1.8571 z m 54.5107,-5.6248 c -0.8185,-1.5295 -1.2896,-2.9433 -1.0469,-3.1419 1.8631,-1.5238 67.6291,-35.4106 68.7235,-35.4106 0.7738,0 1.7176,1.1886 2.0975,2.6412 0.5956,2.2776 -3.3746,4.7787 -28.8445,18.1709 -16.2443,8.5414 -31.5194,16.6528 -33.9447,18.0255 -5.4336,3.0754 -5.1809,3.0857 -6.9849,-0.2851 z m 96.4464,-9.1259 c -3.6091,-3.8939 -13.5692,-30.8914 -17.4969,-47.4266 -3.1967,-13.4576 -3.4827,-17.0296 -3.4705,-43.3333 0.011,-24.6107 0.432,-30.5886 2.9729,-42.2512 8.4655,-38.85635 25.2689,-69.57031 53.526,-97.8373 33.1263,-33.13779 73.6029,-53.38598 118.4797,-59.26881 16.5479,-2.16925 18.5006,-1.73192 17.1045,3.83065 -0.7348,2.92799 -1.7729,3.44291 -8.5023,4.21756 -36.8488,4.24179 -70.1214,17.43363 -99.3797,39.40182 -37.9869,28.52199 -63.1231,68.56561 -72.5313,115.54748 -3.2755,16.3568 -3.2755,56.3629 0,72.7197 2.9683,14.8227 8.9202,33.0905 14.1695,43.4892 5.0797,10.0629 5.2814,13.4842 0.7948,13.4842 -1.8048,0 -4.3548,-1.158 -5.6667,-2.5734 z m 172.049,-78.0723 c -4.4372,-3.108 -5.7792,-8.6327 -3.5892,-14.7765 1.481,-4.1551 1.8246,-14.6068 1.654,-50.3196 -0.1366,-28.58975 0.2727,-45.56328 1.1191,-46.40963 0.7339,-0.73391 4.57,-1.15005 8.5247,-0.92476 l 7.1904,0.40961 0.9284,41.81728 c 0.5106,22.9994 1.1346,42.0235 1.3866,42.2755 0.2521,0.2521 19.9229,-11.2156 43.7129,-25.4839 23.79,-14.2682 44.582,-25.9422 46.2044,-25.9422 6.5624,0 9.4068,10.7957 4.101,15.5653 -2.7697,2.4899 -51.6669,31.5155 -78.5336,46.618 -9.1537,5.1455 -11.69,7.2313 -12.2916,10.1083 -1.2275,5.8699 -5.3944,9.0417 -11.8781,9.0417 -3.1368,0 -6.9749,-0.8906 -8.529,-1.9791 z m 219.0983,-59.6646 c -0.4282,-1.6373 -0.3482,-3.3984 0.1778,-3.9135 1.6613,-1.6271 114.6757,-62.44278 116.0379,-62.44278 1.5939,0 3.1862,3.82135 2.2341,5.36181 -0.3811,0.61664 -7.133,4.56723 -15.0043,8.77908 -7.8712,4.21185 -33.9884,18.35319 -58.0381,31.42519 -24.0497,13.072 -43.9297,23.7672 -44.1778,23.7672 -0.2481,0 -0.8015,-1.3396 -1.2296,-2.977 z m -6.2754,-18.4986 c -0.8103,-1.514 -1.2746,-2.9034 -1.0318,-3.0874 0.2427,-0.1841 3.9801,-2.3275 8.3052,-4.76317 7.5152,-4.23213 7.9437,-4.31915 9.6666,-1.96294 0.9916,1.35603 1.8029,2.82201 1.8029,3.25781 0,0.4358 -3.8857,2.7084 -8.6349,5.0504 -8.546,4.2142 -8.6499,4.2297 -10.108,1.5053 z m -10.5114,-17.04319 c -0.9694,-1.81146 -0.8889,-2.90897 0.2823,-3.84724 1.5963,-1.27889 49.9712,-27.56186 81.2041,-44.11977 14.8845,-7.89089 15.605,-8.12784 16.4658,-5.41549 0.4952,1.56005 0.3907,3.33097 -0.2322,3.93537 -0.9105,0.88357 -75.4146,41.15122 -92.0813,49.76774 -4.0726,2.10548 -4.3487,2.08978 -5.6387,-0.32061 z m -9.5007,-16.92088 c -1.3637,-1.6432 -1.3253,-2.36439 0.2028,-3.80536 3.5492,-3.34676 136.5091,-75.42158 139.1338,-75.42158 0.3618,0 1.2787,1.16012 2.0375,2.57804 1.2513,2.33792 -0.6382,3.66202 -20.2863,14.21651 -11.9164,6.40116 -41.1662,22.25968 -64.9995,35.24116 -57.8116,31.48867 -54.0394,29.65996 -56.0883,27.19123 z m 85.7063,-0.5999 c -0.8899,-1.42497 -1.618,-2.84727 -1.618,-3.16067 0,-0.3134 8.1929,-4.85661 18.2065,-10.09601 13.9463,-7.29714 18.4697,-9.11797 19.3316,-7.7816 2.2948,3.55801 0.07,5.4569 -16.9201,14.43933 -16.5733,8.76227 -17.4573,9.06927 -19,6.59895 z m -96.8492,-17.1808 c -2.6477,-2.92575 -5.9051,-0.93835 64.542,-39.37875 37.0843,-20.23552 40.7921,-21.97568 42.3333,-19.86791 0.9291,1.27056 1.6748,2.64543 1.6572,3.05526 -0.018,0.40984 -6.7425,4.34516 -14.9441,8.74516 -12.6697,6.79701 -38.9666,21.18161 -81.8297,44.76142 -9.237,5.08144 -9.5293,5.14819 -11.7587,2.68482 z M 2787.64,940.52178 c -0.8468,-1.02043 -1.2368,-2.61297 -0.8665,-3.53897 0.3702,-0.92601 29.0874,-17.24798 63.8158,-36.27104 34.7284,-19.02306 70.4897,-38.67306 79.4694,-43.66666 8.9797,-4.9936 16.8892,-9.07928 17.5767,-9.07928 1.2197,0 3.4554,5.17154 2.5515,5.90215 -0.4099,0.33136 -42.3018,23.37 -130.0644,71.52941 -25.5855,14.03996 -31.2093,16.65849 -32.4825,15.12439 z m -13.1909,-16.46159 c -1.2051,-2.25173 -0.3743,-3.18122 6.6662,-7.45807 6.526,-3.96438 8.4112,-4.58001 9.9964,-3.26444 1.0744,0.89173 1.9536,2.11912 1.9536,2.72753 0,0.9546 -15.1834,10.56728 -16.6912,10.56728 -0.3016,0 -1.1678,-1.15754 -1.925,-2.5723 z m 45.3246,-25.34972 c -1.2443,-2.32499 0.01,-3.36548 12.2864,-10.21405 7.5195,-4.19394 17.8493,-9.97082 22.9551,-12.83752 8.557,-4.80439 9.4143,-5.03307 10.9573,-2.92286 2.6025,3.55913 4.9413,1.92365 -30.6214,21.41281 -7.1761,3.93267 -13.305,7.15031 -13.6198,7.15031 -0.3147,0 -1.1957,-1.16491 -1.9576,-2.58869 z"
       id="path2" />
  </g>
</svg>
